<svg width="14" height="12" viewBox="0 0 14 12" fill="none" xmlns="http://www.w3.org/2000/svg">
<path d="M14 1.902C13.4843 2.12989 12.9313 2.28466 12.3503 2.35389C12.943 1.99844 13.3988 1.43533 13.6127 0.765664C13.0589 1.09466 12.4437 1.33344 11.7896 1.46178C11.2653 0.904108 10.5179 0.555664 9.69268 0.555664C8.10679 0.555664 6.82035 1.84055 6.82035 3.42722C6.82035 3.652 6.84524 3.87133 6.89502 4.08211C4.50724 3.96155 2.3909 2.81822 0.974571 1.08144C0.727238 1.50533 0.585682 1.99922 0.585682 2.52422C0.585682 3.52133 1.09279 4.40022 1.86357 4.91511C1.39302 4.90033 0.949682 4.77122 0.562349 4.55655C0.562349 4.56822 0.562349 4.57989 0.562349 4.59233C0.562349 5.98378 1.55246 7.14578 2.86613 7.40866C2.62502 7.474 2.37146 7.509 2.10935 7.509C1.92502 7.509 1.74457 7.49266 1.56957 7.45844C1.93435 8.60022 2.99602 9.43011 4.25213 9.45344C3.26979 10.2234 2.03157 10.6823 0.686016 10.6823C0.45346 10.6823 0.225571 10.6683 0.000793457 10.6411C1.27168 11.457 2.78135 11.9314 4.40379 11.9314C9.68646 11.9314 12.5759 7.55489 12.5759 3.76011C12.5759 3.63489 12.5728 3.51044 12.5666 3.38755C13.1273 2.98466 13.615 2.47833 14 1.902Z" fill="black"/>
</svg>
